<svg xmlns="http://www.w3.org/2000/svg" viewBox="0 0 460.86 442.84"><defs><style>.cls-1{fill:#c8d1eb;}.cls-2{fill:#f04d4e;}.cls-3{fill:#ddd;}.cls-4{fill:#f3828a;}.cls-5{fill:#fff;}.cls-6{fill:#e5e5e5;}.cls-7{fill:#f3828c;}</style></defs><title>book_1</title><g id="Layer_2" data-name="Layer 2"><g id="Layer_1-2" data-name="Layer 1"><path class="cls-1" d="M1.6,225.76S-19.82,29.46,94,50.63s54.93-66.76,136.65-48S391.18,8.07,407.3,75.72s108.22,161.34,6.16,223.79-65.46,149-146.95,143S1.6,225.76,1.6,225.76Z"/><rect class="cls-2" x="45.87" y="76.62" width="360.71" height="294.05" rx="16.07"/><rect class="cls-3" x="222.36" y="76.62" width="19.64" height="294.05"/><rect class="cls-4" x="63.72" y="108.77" width="320.83" height="246.43" rx="16.07"/><path class="cls-5" d="M61.94,76.62h0a261.55,261.55,0,0,1,143-4.58l18.34,4.58V338.53l-6.73-2.29a230,230,0,0,0-147.85,0l-6.73,2.29Z"/><path class="cls-6" d="M384.56,76.62h0a261.55,261.55,0,0,0-143-4.58l-18.34,4.58V338.53l6.73-2.29a230,230,0,0,1,147.85,0l6.73,2.29Z"/><path class="cls-7" d="M120.88,108.77h14.93a0,0,0,0,1,0,0v51.06a7.46,7.46,0,0,1-7.46,7.46h0a7.46,7.46,0,0,1-7.46-7.46V108.77a0,0,0,0,1,0,0Z"/><circle class="cls-7" cx="128.34" cy="178.91" r="7.46"/><path class="cls-7" d="M160.41,162.58h14.93a0,0,0,0,1,0,0v51.06a7.46,7.46,0,0,1-7.46,7.46h0a7.46,7.46,0,0,1-7.46-7.46V162.58a0,0,0,0,1,0,0Z"/><circle class="cls-7" cx="167.88" cy="232.72" r="7.46"/><path class="cls-7" d="M97,222.63H112a0,0,0,0,1,0,0v51.06a7.46,7.46,0,0,1-7.46,7.46h0A7.46,7.46,0,0,1,97,273.69V222.63A0,0,0,0,1,97,222.63Z"/><circle class="cls-7" cx="104.49" cy="292.77" r="7.46"/><path class="cls-7" d="M197.31,222.63h14.93a0,0,0,0,1,0,0v51.06a7.46,7.46,0,0,1-7.46,7.46h0a7.46,7.46,0,0,1-7.46-7.46V222.63a0,0,0,0,1,0,0Z"/><circle class="cls-7" cx="204.77" cy="292.77" r="7.46"/></g></g></svg>