<svg xmlns="http://www.w3.org/2000/svg" viewBox="0 0 764.74 319.34"><defs><style>.cls-1{fill:#1b75bc;}.cls-2{fill:#27aae1;}.cls-14,.cls-15,.cls-16,.cls-3{fill:none;}.cls-3{stroke:#1b75bc;stroke-width:3.46px;}.cls-16,.cls-3{stroke-miterlimit:10;}.cls-13,.cls-4,.cls-8,.cls-9{fill:#231f20;}.cls-4{opacity:0.1;}.cls-5{fill:#fdbf4f;}.cls-6{fill:#2ab564;}.cls-7{fill:#2a1e55;}.cls-12,.cls-8{font-size:10.39px;}.cls-12,.cls-13,.cls-8{font-family:TheBoldFont, The Bold Font;}.cls-9{fill-opacity:0.1;}.cls-10{fill:#dc3645;}.cls-11,.cls-12{fill:#fff;}.cls-13{font-size:15.52px;}.cls-14,.cls-15{stroke:#262262;stroke-linecap:round;stroke-linejoin:round;}.cls-14{stroke-width:4px;}.cls-15{stroke-width:3.19px;}.cls-16{stroke:#ed1c24;stroke-width:5px;}.cls-17{fill:#00aeef;fill-opacity:0.28;}.cls-18{fill:#ed1c24;}.cls-19{fill:#441617;fill-opacity:0.2;}.cls-20{opacity:0.12;}</style></defs><title>icon-404_2</title><g id="Layer_2" data-name="Layer 2"><g id="Layer_1-2" data-name="Layer 1"><rect class="cls-1" x="166.24" y="233.64" width="80.88" height="9.71"/><rect class="cls-1" x="166.24" y="207.76" width="80.88" height="20.68"/><rect class="cls-2" x="166.24" width="80.88" height="260.7"/><rect class="cls-1" x="166.24" y="192.86" width="80.88" height="9.71"/><circle class="cls-1" cx="206.68" cy="101.45" r="28.9"/><circle class="cls-3" cx="206.68" cy="101.45" r="34.29"/><rect class="cls-4" x="206.68" width="40.44" height="260.7"/><rect class="cls-5" x="258.88" width="43.32" height="260.7"/><rect class="cls-6" x="258.88" y="233.64" width="43.32" height="9.71"/><rect class="cls-6" x="258.88" y="192.86" width="43.04" height="9.71"/><rect class="cls-7" x="258.88" y="207.76" width="43.04" height="20.68"/><text class="cls-8" transform="translate(282.19 137.27) rotate(-90)">THE UNTOLD TRUTH</text><rect class="cls-9" x="278" width="24.2" height="260.7"/><rect class="cls-6" x="359.39" y="232.13" width="43.32" height="7.21" transform="translate(-56.29 138.25) rotate(-19.18)"/><rect class="cls-10" x="333.2" y="63.12" width="43.32" height="193.54" transform="translate(-32.75 124.56) rotate(-19.05)"/><rect class="cls-11" x="349.53" y="203.61" width="43.04" height="7.21" transform="translate(-47.31 132.44) rotate(-19.05)"/><rect class="cls-5" x="354.47" y="213.84" width="43.04" height="15.35" transform="translate(-51.71 134.83) rotate(-19.05)"/><text class="cls-12" transform="matrix(-0.24, -0.7, 0.95, -0.33, 358.04, 164.27)">THE UNTOLD TRUTH</text><rect class="cls-9" x="351.8" y="60" width="24.2" height="193.54" transform="translate(-31.24 127.34) rotate(-19.05)"/><rect class="cls-6" x="529.94" y="94.17" width="43.32" height="193.54" transform="translate(357.82 741.55) rotate(-89.7)"/><rect class="cls-6" x="610.22" y="187.75" width="43.32" height="7.21" transform="translate(437.27 822.25) rotate(-89.7)"/><rect class="cls-6" x="580.09" y="187.74" width="43.04" height="7.21" transform="translate(407.17 791.96) rotate(-89.7)"/><rect class="cls-5" x="595.23" y="183.74" width="43.04" height="15.35" transform="matrix(0.01, -1, 1, 0.01, 422.15, 807.17)"/><text class="cls-8" transform="translate(556.75 189.27) rotate(-179.7) scale(0.74 1)">THE UNTOLD TRUTH</text><rect class="cls-9" x="539.55" y="84.62" width="24.2" height="193.54" transform="translate(367.42 732.09) rotate(-89.7)"/><path class="cls-6" d="M634,175a66.1,66.1,0,0,1-21.49,48.82l-89.62-.16a66.3,66.3,0,0,1-19.35-64.75l128.55.24A66.27,66.27,0,0,1,634,175Z"/><text class="cls-13" transform="translate(575.47 188.96) rotate(-179.9) scale(0.74 1)">THE UNTOLD T</text><path class="cls-9" d="M632.1,159.17a67.82,67.82,0,0,1-1.25,36.15l-124-.23a67.89,67.89,0,0,1-1.11-36.16Z"/><rect class="cls-5" x="499.57" y="137.87" width="43.32" height="193.54" transform="translate(281.91 753.73) rotate(-89.48)"/><rect class="cls-6" x="579.85" y="231.76" width="43.32" height="7.21" transform="translate(360.75 834.73) rotate(-89.48)"/><rect class="cls-6" x="549.72" y="231.62" width="43.04" height="7.21" transform="translate(330.88 804.33) rotate(-89.48)"/><rect class="cls-7" x="564.85" y="227.69" width="43.04" height="15.35" transform="translate(345.74 819.6) rotate(-89.48)"/><rect class="cls-9" x="509.21" y="128.31" width="24.2" height="193.54" transform="translate(291.55 744.35) rotate(-89.48)"/><line class="cls-14" x1="114.02" y1="260.7" x2="711.31" y2="260.7"/><polygon class="cls-14" points="92.74 260.7 51.59 260.7 51.59 260.7 92.74 260.7 92.74 260.7"/><polygon class="cls-14" points="762.74 260.91 721.6 260.91 721.6 260.91 762.74 260.91 762.74 260.91"/><polygon class="cls-15" points="27.76 260.7 1.59 260.7 1.59 260.7 27.76 260.7 27.76 260.7"/><path class="cls-16" d="M631.88,180.29a66.28,66.28,0,0,1-37.77,59.8,63.91,63.91,0,0,1-7.27,2.95h0a66.3,66.3,0,1,1,45-62.75Z"/><path class="cls-17" d="M627.29,180.29a61.7,61.7,0,0,1-35.15,55.65,59.57,59.57,0,0,1-6.77,2.75h0a61.69,61.69,0,1,1,41.93-58.4Z"/><path class="cls-18" d="M598.93,238.86h7.85a0,0,0,0,1,0,0v73.52a3.93,3.93,0,0,1-3.93,3.93h0a3.93,3.93,0,0,1-3.93-3.93V238.86a0,0,0,0,1,0,0Z" transform="translate(-60.67 292.62) rotate(-26.02)"/><path class="cls-19" d="M602.67,238h3.85a0,0,0,0,1,0,0v73.6a3.85,3.85,0,0,1-3.85,3.85h0a0,0,0,0,1,0,0V238A0,0,0,0,1,602.67,238Z" transform="translate(-60.12 293.29) rotate(-26.02)"/><ellipse class="cls-20" cx="628.08" cy="318.7" rx="15.16" ry="0.64"/><path class="cls-17" d="M625.51,165.54a61.6,61.6,0,1,0-40.15,73.15h0a59.57,59.57,0,0,0,6.77-2.75,61.59,61.59,0,0,0,35.15-55.65A61.86,61.86,0,0,0,625.51,165.54Zm-58.8-6.67A2.07,2.07,0,0,1,566,156l15.76-27.31a2.08,2.08,0,0,1,3.61,2.08l-15.77,27.31A2.09,2.09,0,0,1,566.71,158.87Zm12.84-5.36h0a1.84,1.84,0,0,1-.67-2.5l9.83-17a1.83,1.83,0,0,1,3.17,1.83l-9.83,17A1.82,1.82,0,0,1,579.55,153.51Zm23.27-17.8-16.65,26.77a2.08,2.08,0,0,1-3.54-2.2l16.66-26.77a2.08,2.08,0,1,1,3.53,2.2Z"/></g></g></svg>